<svg enable-background="new 0 0 317.7 87.7" viewBox="0 0 317.7 87.7" xmlns="http://www.w3.org/2000/svg"><path d="m60.1 26.1-1.3-6.2 1.7-.6c1 2.3 3.1 5.2 6.8 5.2 2.3 0 4.7-1.3 4.7-4.3 0-5.7-12-4.5-12-11.7 0-4.3 3.3-6.4 7-6.4 2.5 0 3.9 1.1 4.4 1.7l.4-1.1h1.4l1.4 5.6-1.7.6c-1-2.2-3.1-4.5-6-4.5-2.6 0-3.8 1.5-3.8 3.4 0 5.2 12 3.8 12 11.7 0 5.3-4.5 7.2-8 7.2-2.1 0-3.7-.7-5.1-1.6l-.4 1.1h-1.5zm21.1 7.8c-1.1.5-2.1 0-2.3-.9l3.6-7-5.4-12c-.4-1-.6-1.2-2.1-1.6v-1.4h6.5v1.4l-1.7.4 4.1 9.1 4-9.2-1.7-.4v-1.4h5.4v1.4c-.9.2-1.6.5-2 1.5l-5.6 12.4zm20.7-19.3c-.1-.5-.7-1.1-1.4-1.1-1.1 0-2.2 1-3 1.9v8.9l1.8.4v1.4h-6v-1.4l1.4-.4v-10.1l-1.8-.5v-1.2c1.7-.3 2.6-.9 3.4-2l1.2.2-.2 3.2c.8-1.4 2.2-3.2 4.3-3.2 1 0 2.1.6 2.1 2 0 1.1-.9 1.9-1.8 1.9m11.1 7.6v-2.6l-3.5.7c-.9.2-2.4.7-2.4 2.3 0 1.1.8 2.1 2.4 2.1 1.7 0 3-1.1 3.5-2.5m4.7 2.1.4.7c-.1.2-1.1 1.6-2.7 1.6s-2.3-.9-2.3-1.8c-.8 1.2-2.4 2-4.3 2-3 0-4.3-2-4.3-3.6 0-2.5 1.6-3.9 4.3-4.4l4.3-.8v-3.2c0-1.3-.9-2.2-2.3-2.2s-2 .6-2.6 1.2c.5 2.2-1.5 3.3-3.3 2.3.1-3.2 3.2-5.3 6.2-5.3 3.5 0 4.8 2 4.8 4.7v8.3c0 .6.4 1 .9 1 .4-.3.8-.4.9-.5m14.1-10.8c0 1.1-1 1.7-2 1.7-.6-1.4-1.5-2.4-3.4-2.4-2.7 0-4.8 2.2-4.8 6 0 3.2 2 5.2 4.8 5.2 2.1 0 3.6-1 4.6-2.3l.7.5c-.5 2.3-2.7 4.3-6.4 4.3-3.5 0-6.6-2.5-6.6-7 0-5.6 4.5-9 8.7-9 2.1.1 4.4 1 4.4 3m3.1-.6-1.8-.4v-1.4h4.6v10.6c0 1.5.7 2.3 2.1 2.3 1.1 0 3-.5 4.8-2.1v-9.1l-1.8-.4v-1.4h4.6v12.3h1.8v1.4c-1.2.3-2.4.8-3.4 1.6l-1.2-.2.2-2.6c-1.8 1.7-3.8 3-6 3s-3.9-1.5-3.9-3.5zm17.4 13.2h-.9l-.7-4.3 1.1-.2c.9 1.8 2.6 3.4 4.8 3.4 2 0 2.7-1.3 2.7-2.3 0-3.3-8.1-2.7-8.1-7.7 0-2.3 2-4.3 4.6-4.3 1.5 0 2.7.5 3.3 1l.1-.5h1.1l.7 3.8-1.1.2c-.5-1-1.6-2.9-3.9-2.9-1.6 0-2.2 1-2.2 1.8 0 3 8 2.3 8 7.5 0 2.9-2.6 4.9-5.4 4.9-1.5 0-3.3-.9-3.9-1.6zm14.4-8.8 6.9-.9c0-2.8-1.4-4-2.9-4-2.6 0-3.8 2.3-4 4.9m0 1.9c.1 2.7 2 4.9 4.4 4.9 2.2 0 3.7-1 4.8-2.6l.7.5c-.6 2.7-2.9 4.7-6.4 4.7s-6.5-2.5-6.5-7.1c0-6.2 3.7-8.9 7.2-8.9 3.2 0 5.9 1.9 5.9 6.5l-.6.9zm38.3-1.6c0 5.8-3.4 9.2-9.3 9.2s-9.3-3.4-9.3-9.2v-13l-1.8-.4v-1.6h7v1.6l-1.8.4v12.5c0 4.5 1.9 7.2 6.6 7.2 3.8 0 6.3-2.6 6.3-7v-12.7l-1.8-.4v-1.6h6.1v1.6l-2 .4zm2.6 8.5v-1.4l1.4-.4v-10.1l-1.8-.5v-1.2c1.7-.3 2.6-.9 3.4-2l1.2.2-.2 3c1.8-1.7 3.8-3 6-3s3.9 1.5 3.9 3.5v10.2l1.8.4v1.4h-6v-1.4l1.4-.4v-8.8c0-1.5-.7-2.3-2.1-2.3-1.1 0-3 .5-4.8 2.1v9.1l1.8.4v1.4h-6zm21-21.7c1 0 1.8.8 1.8 1.8s-.8 1.8-1.8 1.8-1.8-.8-1.8-1.8.8-1.8 1.8-1.8m-3.2 21.7v-1.4l1.6-.4v-10.1l-1.8-.5v-1.2c1.7-.3 2.6-.9 3.4-2l1.2.2v13.7l1.6.4v1.4h-6zm6.4-15h6.5v1.4l-1.7.4 4.1 9.1 4-9.2-1.7-.4v-1.4h5.4v1.4c-.9.2-1.6.5-2 1.5l-5.6 12.4h-1.3l-5.6-12.4c-.5-1-.6-1.2-2.1-1.6zm19.5 6.2 6.9-.9c0-2.8-1.4-4-2.9-4-2.6 0-3.9 2.3-4 4.9m-.1 1.9c.1 2.7 2 4.9 4.4 4.9 2.2 0 3.7-1 4.8-2.6l.7.5c-.6 2.7-2.9 4.7-6.4 4.7s-6.5-2.5-6.5-7.1c0-6.2 3.7-8.9 7.2-8.9 3.2 0 5.9 1.9 5.9 6.5l-.6.9zm20.6-4.6c-.1-.5-.7-1.1-1.4-1.1-1.1 0-2.2 1-3 1.9v8.9l1.8.4v1.4h-6v-1.4l1.4-.4v-10.1l-1.8-.5v-1.2c1.7-.3 2.6-.9 3.4-2l1.2.2-.2 3.2c.8-1.4 2.2-3.2 4.3-3.2 1 0 2.1.6 2.1 2 .1 1.1-.9 1.9-1.8 1.9m4.1 11.5h-.9l-.7-4.3 1.1-.2c.9 1.8 2.6 3.4 4.8 3.4 2 0 2.7-1.3 2.7-2.3 0-3.3-8.1-2.7-8.1-7.7 0-2.3 2-4.3 4.6-4.3 1.5 0 2.7.5 3.3 1l.1-.5h1.1l.7 3.8-1.1.2c-.5-1-1.6-2.9-3.9-2.9-1.6 0-2.2 1-2.2 1.8 0 3 8 2.3 8 7.5 0 2.9-2.6 4.9-5.4 4.9-1.5 0-3.3-.9-3.9-1.6zm14.6-21.7c1 0 1.8.8 1.8 1.8s-.8 1.8-1.8 1.8-1.8-.8-1.8-1.8c.1-1 .8-1.8 1.8-1.8m-3.2 21.7v-1.4l1.6-.4v-10.1l-1.8-.5v-1.2c1.7-.3 2.6-.9 3.4-2l1.2.2v13.7l1.6.4v1.4h-6zm9.1-2.7v-10.5h-2.3v-1.4c2-.4 3.2-2.1 3.9-4.1l1.2.2v3.4h3.9v1.8h-3.9v9.9c0 1.1.5 1.7 1.4 1.7.7 0 1.3-.4 1.7-.9l.7.6c-.4 1.1-1.7 2.3-3.4 2.3-1.8.2-3.2-.9-3.2-3" fill="#f76900"/><path d="m307.3 33.9c-1.1.5-2.1 0-2.3-.9l3.6-7-5.4-12c-.4-1-1.3-1.1-2.3-1.1h-3v-1.8h9.7v1.4l-1.7.4 4.1 9.1 4-9.2-1.7-.4v-1.4h5.4v1.4c-.9.2-1.6.5-2 1.5l-5.7 12.5z" fill="#f76900"/><path d="m76.7 58.5h-1.3l-12.8-14.8v13l1.5.3v1.3h-5v-1.3l1.5-.3v-15.3c-.5-.6-.8-.9-1.5-1v-1.3h3.2l12.4 14.3v-12.7l-1.5-.3v-1.3h5v1.3l-1.5.3zm5.4-5.8c.1 2.2 1.6 4 3.6 4 1.8 0 3-.8 3.9-2.1l.6.4c-.5 2.2-2.4 3.8-5.2 3.8-2.9 0-5.3-2.1-5.3-5.8 0-5.1 3-7.3 5.9-7.3 2.6 0 4.8 1.6 4.8 5.3l-.5.7zm0-1.5 5.7-.8c0-2.3-1.2-3.2-2.4-3.2-2.2 0-3.2 1.8-3.3 4zm16-5.1h5.3v1.1l-1.4.3 3.3 7.5 2.8-7.5-1.4-.3v-1.1h4.3v1.1c-.7.2-1.3.4-1.6 1.2l-4 10.1h-1.1l-3.2-7.2-3.3 7.2h-1.2l-3.9-10.1c-.3-.8-.5-1-1.7-1.3v-1.1h5.3v1.1l-1.3.5 2.9 7.5 2.4-5.5-.5-1.1c-.3-.8-.5-1-1.7-1.3zm13.7 12.2v-1.1l1.2-.3v-15l-1.5-.4v-1c1.4-.2 2.1-.7 2.8-1.7l1 .2v9c1.4-1.3 3-2.3 4.8-2.3s3.2 1.2 3.2 2.9v8.3l1.5.3v1.1h-4.9v-1.1l1.2-.3v-7.2c0-1.2-.6-1.9-1.7-1.9-.9 0-2.4.4-3.9 1.7v7.4l1.5.3v1.1zm26.4-6.2c0 4-3 6.7-6.4 6.7s-6.1-2.5-6.1-6.4c0-4 3-6.7 6.4-6.7 3.3 0 6.1 2.4 6.1 6.4zm-2.5.5c0-3.4-1.8-5.4-3.9-5.4-2 0-3.7 1.4-3.7 4.6 0 3.4 1.8 5.4 3.9 5.4s3.7-1.4 3.7-4.6zm4.8-5-1.5-.3v-1.1h3.8v8.6c0 1.2.6 1.9 1.7 1.9.9 0 2.4-.4 3.9-1.7v-7.4l-1.5-.3v-1.1h3.8v10.1h1.5v1.1c-1 .2-2 .6-2.8 1.3l-1-.2.1-2.1c-1.5 1.4-3.1 2.4-4.9 2.4s-3.2-1.2-3.2-2.9v-8.3zm14.1 10.7h-.7l-.6-3.5.9-.2c.7 1.5 2.1 2.8 3.9 2.8 1.6 0 2.2-1.1 2.2-1.9 0-2.7-6.6-2.2-6.6-6.3 0-1.9 1.7-3.5 3.8-3.5 1.2 0 2.2.4 2.7.8l.1-.4h.9l.6 3.1-.9.2c-.4-.8-1.3-2.3-3.2-2.3-1.3 0-1.8.8-1.8 1.5 0 2.5 6.5 1.9 6.5 6.1 0 2.4-2.1 4-4.4 4-1.2 0-2.7-.7-3.2-1.3zm11.6-5.6c.1 2.2 1.6 4 3.6 4 1.8 0 3-.8 3.9-2.1l.6.4c-.5 2.2-2.4 3.8-5.2 3.8-2.9 0-5.3-2.1-5.3-5.8 0-5.1 3-7.3 5.9-7.3 2.6 0 4.8 1.6 4.8 5.3l-.5.7zm0-1.5 5.7-.8c0-2.3-1.2-3.2-2.4-3.2-2.2 0-3.2 1.8-3.3 4zm15.3 7.1-1.1-5 1.4-.5c.8 1.9 2.5 4.2 5.5 4.2 1.9 0 3.8-1 3.8-3.5 0-4.6-9.8-3.7-9.8-9.5 0-3.5 2.7-5.2 5.7-5.2 2.1 0 3.2.9 3.6 1.4l.3-.9h1.2l1.2 4.6-1.4.5c-.8-1.8-2.5-3.7-4.9-3.7-2.1 0-3.1 1.2-3.1 2.8 0 4.2 9.8 3.1 9.8 9.5 0 4.3-3.7 5.9-6.6 5.9-1.7 0-3-.6-4.2-1.3l-.3.9h-1.1zm24.6-10.3c0 .9-.8 1.4-1.7 1.4-.5-1.2-1.2-1.9-2.8-1.9-2.2 0-3.9 1.8-3.9 4.9 0 2.6 1.7 4.3 3.9 4.3 1.7 0 2.9-.8 3.7-1.9l.6.4c-.4 1.9-2.2 3.5-5.3 3.5-2.9 0-5.4-2-5.4-5.7 0-4.6 3.7-7.3 7.1-7.3 1.9 0 3.8.7 3.8 2.3zm1 10.3v-1.1l1.2-.3v-15l-1.5-.4v-1c1.4-.2 2.1-.7 2.8-1.7l1 .2v9c1.4-1.3 3-2.3 4.8-2.3s3.2 1.2 3.2 2.9v8.3l1.5.3v1.1h-4.9v-1.1l1.2-.3v-7.2c0-1.2-.6-1.9-1.7-1.9-.9 0-2.4.4-3.9 1.7v7.4l1.5.3v1.1zm26.3-6.2c0 4-3 6.7-6.4 6.7s-6.1-2.5-6.1-6.4c0-4 3-6.7 6.4-6.7s6.1 2.4 6.1 6.4zm-2.4.5c0-3.4-1.8-5.4-3.9-5.4-2 0-3.7 1.4-3.7 4.6 0 3.4 1.8 5.4 3.9 5.4 2 0 3.7-1.4 3.7-4.6zm16.4-.5c0 4-3 6.7-6.4 6.7s-6.1-2.5-6.1-6.4c0-4 3-6.7 6.4-6.7 3.3 0 6.1 2.4 6.1 6.4zm-2.5.5c0-3.4-1.8-5.4-3.9-5.4-2 0-3.7 1.4-3.7 4.6 0 3.4 1.8 5.4 3.9 5.4s3.7-1.4 3.7-4.6zm3.6 5.7v-1.1l1.3-.3v-15l-1.5-.4v-1c1.4-.2 2.1-.7 2.8-1.7l1 .2v17.9l1.3.3v1.1zm23.6-6.2c0 4-3 6.7-6.4 6.7s-6.1-2.5-6.1-6.4c0-4 3-6.7 6.4-6.7s6.1 2.4 6.1 6.4zm-2.4.5c0-3.4-1.8-5.4-3.9-5.4-2 0-3.7 1.4-3.7 4.6 0 3.4 1.8 5.4 3.9 5.4 2 0 3.7-1.4 3.7-4.6zm12.7-12.1c0 1-.8 1.5-1.6 1.5-.1-.7-.6-1.5-1.6-1.5-.9 0-2.1.7-2.1 3v2.8h3.2v1.5h-3.2v9.3l1.9.3v1.1h-5.5v-1.1l1.3-.3v-9.3h-1.9v-1.1l1.9-.3v-1.5c0-3.7 2.3-5.9 5.1-5.9 1.2-.3 2.5.3 2.5 1.5zm-219.1 39.2v6l1.8.3v1.3h-6v-1.3l1.5-.3v-16l-1.5-.3v-1.3h7.5c3.7 0 6.6 2.2 6.6 5.7 0 4-2.9 6.1-6.8 6.1-1.2.1-2.7-.1-3.1-.2zm0-9.9v8.1c.4.1 1.4.5 2.5.5 2.7 0 4.6-1 4.6-3.9 0-3-1.7-4.7-5-4.7zm12.6 6.8-1.5-.3v-1.1h3.8v8.6c0 1.2.6 1.9 1.7 1.9.9 0 2.4-.4 3.9-1.7v-7.4l-1.5-.3v-1.1h3.8v10.1h1.5v1.1c-1 .2-2 .6-2.8 1.3l-1-.2.1-2.1c-1.5 1.4-3.1 2.4-4.9 2.4s-3.2-1.2-3.2-2.9v-8.3zm15.7 0c1-1.1 2.5-1.9 4.2-1.9 2.9 0 5.3 2.1 5.3 5.8 0 5.1-3.7 7.3-6.6 7.3-1.7 0-2.9-.5-3.8-1.2l-.5.8-1-.2v-16.3l-1.5-.4v-1c1.4-.2 2.1-.7 2.8-1.7l1 .2v8.6zm0 1.6v7.1c.5.3 1.5.7 2.6.7 2.1 0 4.4-1.4 4.4-5 0-2.6-1.5-4.3-3.7-4.3-1.3 0-2.5.7-3.3 1.5zm10.6 9.1v-1.1l1.3-.3v-15l-1.5-.4v-1c1.4-.2 2.1-.7 2.8-1.7l1 .2v17.9l1.3.3v1.1zm6.3 0v-1.1l1.3-.3v-8.3l-1.5-.4v-1c1.4-.2 2.1-.7 2.8-1.7l1 .2v11.2l1.3.3v1.1zm2.6-17.7c.8 0 1.5.6 1.5 1.5s-.6 1.5-1.5 1.5c-.8 0-1.5-.6-1.5-1.5s.7-1.5 1.5-1.5zm14.1 7.4c0 .9-.8 1.4-1.7 1.4-.5-1.2-1.2-1.9-2.8-1.9-2.2 0-3.9 1.8-3.9 4.9 0 2.6 1.7 4.3 3.9 4.3 1.7 0 2.9-.8 3.7-1.9l.6.4c-.4 1.9-2.2 3.5-5.3 3.5-2.9 0-5.4-2-5.4-5.7 0-4.6 3.7-7.3 7.1-7.3 1.9 0 3.8.7 3.8 2.3zm6.2.9c0-6.1 4.6-10.2 9.8-10.2 3.2 0 5.3 1.3 6.2 2.1l.3-.8h1l1.2 4.6-1.2.5c-.9-1.7-3.1-4.3-7.1-4.3-3.7 0-7.4 2.1-7.4 7.5 0 5.2 3.5 8.5 7.6 8.5 3.5 0 6.2-2.6 7.2-4.8l1.3.5-.8 3.9c-.3 0-.6 0-1 .2-1.2.4-3.2 2.2-7.1 2.2-5.8-.1-10-3.9-10-9.9zm33.1 3.2c0 4-3 6.7-6.4 6.7s-6.1-2.5-6.1-6.4c0-4 3-6.7 6.4-6.7s6.1 2.4 6.1 6.4zm-2.5.5c0-3.4-1.8-5.4-3.9-5.4-2 0-3.7 1.4-3.7 4.6 0 3.4 1.8 5.4 3.9 5.4s3.7-1.4 3.7-4.6zm3.8 5.7v-1.1l1.2-.3v-8.3l-1.5-.4v-1c1.4-.2 2.1-.7 2.8-1.7l1 .2-.1 2.1c1.3-1.2 2.7-2.1 4.3-2.1 1.5 0 2.8.9 3.1 2.1 1.3-1.2 2.6-2.1 4.3-2.1 1.8 0 3.2 1.2 3.2 2.9v8.3l1.5.3v1.1h-4.9v-1.1l1.2-.3v-7.2c0-1.2-.6-1.9-1.7-1.9-.8 0-2.1.3-3.3 1.4v7.7l1.5.3v1.1h-4.9v-1.1l1.2-.3v-7.2c0-1.2-.6-1.9-1.7-1.9-.8 0-2.1.3-3.3 1.4v7.7l1.5.3v1.1zm21.2 0v-1.1l1.2-.3v-8.3l-1.5-.4v-1c1.4-.2 2.1-.7 2.8-1.7l1 .2-.1 2.1c1.3-1.2 2.7-2.1 4.3-2.1 1.5 0 2.8.9 3.1 2.1 1.3-1.2 2.6-2.1 4.3-2.1 1.8 0 3.2 1.2 3.2 2.9v8.3l1.5.3v1.1h-4.9v-1.1l1.2-.3v-7.2c0-1.2-.6-1.9-1.7-1.9-.8 0-2.1.3-3.3 1.4v7.7l1.5.3v1.1h-4.9v-1.1l1.2-.3v-7.2c0-1.2-.6-1.9-1.7-1.9-.8 0-2.1.3-3.3 1.4v7.7l1.5.3v1.1zm21.7-10.7-1.5-.3v-1.1h3.8v8.6c0 1.2.6 1.9 1.7 1.9.9 0 2.4-.4 3.9-1.7v-7.4l-1.5-.3v-1.1h3.8v10.1h1.5v1.1c-1 .2-2 .6-2.8 1.3l-1-.2.1-2.1c-1.5 1.4-3.1 2.4-4.9 2.4s-3.2-1.2-3.2-2.9v-8.3zm13.1 10.7v-1.1l1.2-.3v-8.3l-1.5-.4v-1c1.4-.2 2.1-.7 2.8-1.7l1 .2-.1 2.4c1.5-1.4 3.1-2.4 4.9-2.4s3.2 1.2 3.2 2.9v8.3l1.5.3v1.1h-4.9v-1.1l1.2-.3v-7.2c0-1.2-.6-1.9-1.7-1.9-.9 0-2.4.4-3.9 1.7v7.4l1.5.3v1.1zm14.3 0v-1.1l1.3-.3v-8.3l-1.5-.4v-1c1.4-.2 2.1-.7 2.8-1.7l1 .2v11.2l1.3.3v1.1zm2.6-17.7c.8 0 1.5.6 1.5 1.5s-.6 1.5-1.5 1.5c-.8 0-1.5-.6-1.5-1.5s.7-1.5 1.5-1.5zm14.1 7.4c0 .9-.8 1.4-1.7 1.4-.5-1.2-1.2-1.9-2.8-1.9-2.2 0-3.9 1.8-3.9 4.9 0 2.6 1.7 4.3 3.9 4.3 1.7 0 2.9-.8 3.7-1.9l.6.4c-.4 1.9-2.2 3.5-5.3 3.5-2.9 0-5.4-2-5.4-5.7 0-4.6 3.7-7.3 7.1-7.3 1.9 0 3.8.7 3.8 2.3zm12 8.8.3.6c-.1.2-.9 1.3-2.2 1.3s-1.9-.8-1.9-1.5c-.7 1-2 1.6-3.5 1.6-2.4 0-3.5-1.6-3.5-2.9 0-2 1.3-3.2 3.5-3.6l3.5-.6v-2.7c0-1-.7-1.8-1.9-1.8-1.1 0-1.7.5-2.1 1 .4 1.8-1.2 2.7-2.7 1.9.1-2.6 2.6-4.4 5.1-4.4 2.8 0 3.9 1.7 3.9 3.8v6.8c0 .5.3.8.7.8s.7-.2.8-.3zm-3.8-1.7v-2.1l-2.8.6c-.8.1-1.9.6-1.9 1.9 0 .9.7 1.7 2 1.7 1.2 0 2.3-.9 2.7-2.1zm5.8 1.1v-8.6h-1.9v-1.1c1.6-.3 2.6-1.7 3.2-3.3l1 .2v2.8h3.2v1.5h-3.2v8.1c0 .9.4 1.4 1.2 1.4.6 0 1.1-.3 1.4-.7l.6.5c-.3.9-1.4 1.9-2.8 1.9-1.5-.2-2.7-1.1-2.7-2.7zm6.9 2.1v-1.1l1.3-.3v-8.3l-1.5-.4v-1c1.4-.2 2.1-.7 2.8-1.7l1 .2v11.2l1.3.3v1.1zm2.6-17.7c.8 0 1.5.6 1.5 1.5s-.6 1.5-1.5 1.5c-.8 0-1.5-.6-1.5-1.5s.6-1.5 1.5-1.5zm15.8 11.5c0 4-3 6.7-6.4 6.7s-6.1-2.5-6.1-6.4c0-4 3-6.7 6.4-6.7 3.3 0 6.1 2.4 6.1 6.4zm-2.5.5c0-3.4-1.8-5.4-3.9-5.4-2 0-3.7 1.4-3.7 4.6 0 3.4 1.8 5.4 3.9 5.4s3.7-1.4 3.7-4.6zm3.8 5.7v-1.1l1.2-.3v-8.3l-1.5-.4v-1c1.4-.2 2.1-.7 2.8-1.7l1 .2-.1 2.4c1.5-1.4 3.1-2.4 4.9-2.4s3.2 1.2 3.2 2.9v8.3l1.5.3v1.1h-4.9v-1.1l1.2-.3v-7.2c0-1.2-.6-1.9-1.7-1.9-.9 0-2.4.4-3.9 1.7v7.4l1.5.3v1.1zm15.2 0h-.7l-.6-3.5.9-.2c.7 1.5 2.1 2.8 3.9 2.8 1.6 0 2.2-1.1 2.2-1.9 0-2.7-6.6-2.2-6.6-6.3 0-1.9 1.7-3.5 3.8-3.5 1.2 0 2.2.4 2.7.8l.1-.4h.9l.6 3.1-.9.2c-.4-.8-1.3-2.3-3.2-2.3-1.3 0-1.8.8-1.8 1.5 0 2.5 6.5 1.9 6.5 6.1 0 2.4-2.1 4-4.4 4-1.2 0-2.7-.7-3.2-1.3z" fill="#fff"/><path d="m28.9 19.1h14.9v-10.9c-.2-.2-8.3-8-8.6-8.2h-27c-.1.2-8 8-8.2 8.2v20c.2.2 7.7 7.8 8 8.1h20.9v11.6h-13.8v-6.6l-15.1-.1v10.9c.2.2 8.1 8 8.3 8.2h27c.2-.2 8.3-8 8.6-8.2v-20c-.2-.2-7.7-7.8-8-8.1h-20.8v-11.5h13.8z" fill="#f76900"/></svg>