<?xml version="1.0" encoding="utf-8"?>
<!-- Generator: Adobe Illustrator 25.3.1, SVG Export Plug-In . SVG Version: 6.00 Build 0)  -->
<svg version="1.1" id="Layer_1" xmlns="http://www.w3.org/2000/svg" xmlns:xlink="http://www.w3.org/1999/xlink" x="0px" y="0px"
	 viewBox="0 0 317.7 87.7" style="enable-background:new 0 0 317.7 87.7;" xml:space="preserve"><style>.st0{fill:#f76900}.st1{fill:#ffffff}</style><path class="st0" d="M60.1 26.1l-1.3-6.2 1.7-.6c1 2.3 3.1 5.2 6.8 5.2 2.3 0 4.7-1.3 4.7-4.3 0-5.7-12-4.5-12-11.7 0-4.3 3.3-6.4 7-6.4 2.5 0 3.9 1.1 4.4 1.7l.4-1.1h1.4l1.4 5.6-1.7.6c-1-2.2-3.1-4.5-6-4.5-2.6 0-3.8 1.5-3.8 3.4 0 5.2 12 3.8 12 11.7 0 5.3-4.5 7.2-8 7.2-2.1 0-3.7-.7-5.1-1.6l-.4 1.1h-1.5zM81.2 33.9c-1.1.5-2.1 0-2.3-.9l3.6-7-5.4-12c-.4-1-.6-1.2-2.1-1.6V11h6.5v1.4l-1.7.4 4.1 9.1 4-9.2-1.7-.4v-1.4h5.4v1.4c-.9.2-1.6.5-2 1.5L84 26.2l-2.8 7.7zM101.9 14.6c-.1-.5-.7-1.1-1.4-1.1-1.1 0-2.2 1-3 1.9v8.9l1.8.4v1.4h-6v-1.4l1.4-.4V14.2l-1.8-.5v-1.2c1.7-.3 2.6-.9 3.4-2l1.2.2-.2 3.2c.8-1.4 2.2-3.2 4.3-3.2 1 0 2.1.6 2.1 2 0 1.1-.9 1.9-1.8 1.9M113 22.2v-2.6l-3.5.7c-.9.2-2.4.7-2.4 2.3 0 1.1.8 2.1 2.4 2.1 1.7 0 3-1.1 3.5-2.5m4.7 2.1l.4.7c-.1.2-1.1 1.6-2.7 1.6s-2.3-.9-2.3-1.8c-.8 1.2-2.4 2-4.3 2-3 0-4.3-2-4.3-3.6 0-2.5 1.6-3.9 4.3-4.4l4.3-.8v-3.2c0-1.3-.9-2.2-2.3-2.2s-2 .6-2.6 1.2c.5 2.2-1.5 3.3-3.3 2.3.1-3.2 3.2-5.3 6.2-5.3 3.5 0 4.8 2 4.8 4.7v8.3c0 .6.4 1 .9 1 .4-.3.8-.4.9-.5M131.8 13.5c0 1.1-1 1.7-2 1.7-.6-1.4-1.5-2.4-3.4-2.4-2.7 0-4.8 2.2-4.8 6 0 3.2 2 5.2 4.8 5.2 2.1 0 3.6-1 4.6-2.3l.7.5c-.5 2.3-2.7 4.3-6.4 4.3-3.5 0-6.6-2.5-6.6-7 0-5.6 4.5-9 8.7-9 2.1.1 4.4 1 4.4 3M134.9 12.9l-1.8-.4v-1.4h4.6v10.6c0 1.5.7 2.3 2.1 2.3 1.1 0 3-.5 4.8-2.1v-9.1l-1.8-.4V11h4.6v12.3h1.8v1.4c-1.2.3-2.4.8-3.4 1.6l-1.2-.2.2-2.6c-1.8 1.7-3.8 3-6 3s-3.9-1.5-3.9-3.5V12.9zM152.3 26.1h-.9l-.7-4.3 1.1-.2c.9 1.8 2.6 3.4 4.8 3.4 2 0 2.7-1.3 2.7-2.3 0-3.3-8.1-2.7-8.1-7.7 0-2.3 2-4.3 4.6-4.3 1.5 0 2.7.5 3.3 1l.1-.5h1.1l.7 3.8-1.1.2c-.5-1-1.6-2.9-3.9-2.9-1.6 0-2.2 1-2.2 1.8 0 3 8 2.3 8 7.5 0 2.9-2.6 4.9-5.4 4.9-1.5 0-3.3-.9-3.9-1.6l-.2 1.2zM166.7 17.3l6.9-.9c0-2.8-1.4-4-2.9-4-2.6 0-3.8 2.3-4 4.9m0 1.9c.1 2.7 2 4.9 4.4 4.9 2.2 0 3.7-1 4.8-2.6l.7.5c-.6 2.7-2.9 4.7-6.4 4.7-3.5 0-6.5-2.5-6.5-7.1 0-6.2 3.7-8.9 7.2-8.9 3.2 0 5.9 1.9 5.9 6.5l-.6.9-9.5 1.1zM205 17.6c0 5.8-3.4 9.2-9.3 9.2s-9.3-3.4-9.3-9.2v-13l-1.8-.4V2.6h7v1.6l-1.8.4v12.5c0 4.5 1.9 7.2 6.6 7.2 3.8 0 6.3-2.6 6.3-7V4.6l-1.8-.4V2.6h6.1v1.6l-2 .4v13zM207.6 26.1v-1.4l1.4-.4V14.2l-1.8-.5v-1.2c1.7-.3 2.6-.9 3.4-2l1.2.2-.2 3c1.8-1.7 3.8-3 6-3s3.9 1.5 3.9 3.5v10.2l1.8.4v1.4h-6v-1.4l1.4-.4v-8.8c0-1.5-.7-2.3-2.1-2.3-1.1 0-3 .5-4.8 2.1v9.1l1.8.4v1.4h-6zM228.6 4.4c1 0 1.8.8 1.8 1.8s-.8 1.8-1.8 1.8-1.8-.8-1.8-1.8.8-1.8 1.8-1.8m-3.2 21.7v-1.4l1.6-.4V14.2l-1.8-.5v-1.2c1.7-.3 2.6-.9 3.4-2l1.2.2v13.7l1.6.4v1.4h-6zM231.8 11.1h6.5v1.4l-1.7.4 4.1 9.1 4-9.2-1.7-.4V11h5.4v1.4c-.9.2-1.6.5-2 1.5l-5.6 12.4h-1.3l-5.6-12.4c-.5-1-.6-1.2-2.1-1.6v-1.2zM251.3 17.3l6.9-.9c0-2.8-1.4-4-2.9-4-2.6 0-3.9 2.3-4 4.9m-.1 1.9c.1 2.7 2 4.9 4.4 4.9 2.2 0 3.7-1 4.8-2.6l.7.5c-.6 2.7-2.9 4.7-6.4 4.7-3.5 0-6.5-2.5-6.5-7.1 0-6.2 3.7-8.9 7.2-8.9 3.2 0 5.9 1.9 5.9 6.5l-.6.9-9.5 1.1zM271.8 14.6c-.1-.5-.7-1.1-1.4-1.1-1.1 0-2.2 1-3 1.9v8.9l1.8.4v1.4h-6v-1.4l1.4-.4V14.2l-1.8-.5v-1.2c1.7-.3 2.6-.9 3.4-2l1.2.2-.2 3.2c.8-1.4 2.2-3.2 4.3-3.2 1 0 2.1.6 2.1 2 .1 1.1-.9 1.9-1.8 1.9M275.9 26.1h-.9l-.7-4.3 1.1-.2c.9 1.8 2.6 3.4 4.8 3.4 2 0 2.7-1.3 2.7-2.3 0-3.3-8.1-2.7-8.1-7.7 0-2.3 2-4.3 4.6-4.3 1.5 0 2.7.5 3.3 1l.1-.5h1.1l.7 3.8-1.1.2c-.5-1-1.6-2.9-3.9-2.9-1.6 0-2.2 1-2.2 1.8 0 3 8 2.3 8 7.5 0 2.9-2.6 4.9-5.4 4.9-1.5 0-3.3-.9-3.9-1.6l-.2 1.2zM290.5 4.4c1 0 1.8.8 1.8 1.8s-.8 1.8-1.8 1.8-1.8-.8-1.8-1.8c.1-1 .8-1.8 1.8-1.8m-3.2 21.7v-1.4l1.6-.4V14.2l-1.8-.5v-1.2c1.7-.3 2.6-.9 3.4-2l1.2.2v13.7l1.6.4v1.4h-6zM296.4 23.4V12.9h-2.3v-1.4c2-.4 3.2-2.1 3.9-4.1l1.2.2V11h3.9v1.8h-3.9v9.9c0 1.1.5 1.7 1.4 1.7.7 0 1.3-.4 1.7-.9l.7.6c-.4 1.1-1.7 2.3-3.4 2.3-1.8.2-3.2-.9-3.2-3"></path><path class="st0" d="M307.3 33.9c-1.1.5-2.1 0-2.3-.9l3.6-7-5.4-12c-.4-1-1.3-1.1-2.3-1.1h-3v-1.8h9.7v1.4l-1.7.4L310 22l4-9.2-1.7-.4V11h5.4v1.4c-.9.2-1.6.5-2 1.5L310 26.4l-2.7 7.5z"></path><g><path class="st1" d="M76.7 58.5h-1.3L62.6 43.7v13l1.5.3v1.3h-5V57l1.5-.3V41.4c-.5-.6-.8-.9-1.5-1v-1.3h3.2l12.4 14.3V40.7l-1.5-.3v-1.3h5v1.3l-1.5.3v17.8zM82.1 52.7c.1 2.2 1.6 4 3.6 4 1.8 0 3-.8 3.9-2.1l.6.4c-.5 2.2-2.4 3.8-5.2 3.8-2.9 0-5.3-2.1-5.3-5.8 0-5.1 3-7.3 5.9-7.3 2.6 0 4.8 1.6 4.8 5.3l-.5.7-7.8 1zm0-1.5l5.7-.8c0-2.3-1.2-3.2-2.4-3.2-2.2 0-3.2 1.8-3.3 4zM98.1 46.1h5.3v1.1l-1.4.3 3.3 7.5 2.8-7.5-1.4-.3v-1.1h4.3v1.1c-.7.2-1.3.4-1.6 1.2l-4 10.1h-1.1l-3.2-7.2-3.3 7.2h-1.2l-3.9-10.1c-.3-.8-.5-1-1.7-1.3V46h5.3v1.1l-1.3.5 2.9 7.5 2.4-5.5-.5-1.1c-.3-.8-.5-1-1.7-1.3v-1.1zM111.8 58.3v-1.1l1.2-.3v-15l-1.5-.4v-1c1.4-.2 2.1-.7 2.8-1.7l1 .2v9c1.4-1.3 3-2.3 4.8-2.3 1.8 0 3.2 1.2 3.2 2.9v8.3l1.5.3v1.1h-4.9v-1.1l1.2-.3v-7.2c0-1.2-.6-1.9-1.7-1.9-.9 0-2.4.4-3.9 1.7v7.4l1.5.3v1.1h-5.2zM138.2 52.1c0 4-3 6.7-6.4 6.7-3.4 0-6.1-2.5-6.1-6.4 0-4 3-6.7 6.4-6.7 3.3 0 6.1 2.4 6.1 6.4zm-2.5.5c0-3.4-1.8-5.4-3.9-5.4-2 0-3.7 1.4-3.7 4.6 0 3.4 1.8 5.4 3.9 5.4 2.1 0 3.7-1.4 3.7-4.6zM140.5 47.6l-1.5-.3v-1.1h3.8v8.6c0 1.2.6 1.9 1.7 1.9.9 0 2.4-.4 3.9-1.7v-7.4l-1.5-.3v-1.1h3.8v10.1h1.5v1.1c-1 .2-2 .6-2.8 1.3l-1-.2.1-2.1c-1.5 1.4-3.1 2.4-4.9 2.4-1.8 0-3.2-1.2-3.2-2.9v-8.3zM154.6 58.3h-.7l-.6-3.5.9-.2c.7 1.5 2.1 2.8 3.9 2.8 1.6 0 2.2-1.1 2.2-1.9 0-2.7-6.6-2.2-6.6-6.3 0-1.9 1.7-3.5 3.8-3.5 1.2 0 2.2.4 2.7.8l.1-.4h.9l.6 3.1-.9.2c-.4-.8-1.3-2.3-3.2-2.3-1.3 0-1.8.8-1.8 1.5 0 2.5 6.5 1.9 6.5 6.1 0 2.4-2.1 4-4.4 4-1.2 0-2.7-.7-3.2-1.3l-.2.9zM166.2 52.7c.1 2.2 1.6 4 3.6 4 1.8 0 3-.8 3.9-2.1l.6.4c-.5 2.2-2.4 3.8-5.2 3.8-2.9 0-5.3-2.1-5.3-5.8 0-5.1 3-7.3 5.9-7.3 2.6 0 4.8 1.6 4.8 5.3l-.5.7-7.8 1zm0-1.5l5.7-.8c0-2.3-1.2-3.2-2.4-3.2-2.2 0-3.2 1.8-3.3 4zM181.5 58.3l-1.1-5 1.4-.5c.8 1.9 2.5 4.2 5.5 4.2 1.9 0 3.8-1 3.8-3.5 0-4.6-9.8-3.7-9.8-9.5 0-3.5 2.7-5.2 5.7-5.2 2.1 0 3.2.9 3.6 1.4l.3-.9h1.2l1.2 4.6-1.4.5c-.8-1.8-2.5-3.7-4.9-3.7-2.1 0-3.1 1.2-3.1 2.8 0 4.2 9.8 3.1 9.8 9.5 0 4.3-3.7 5.9-6.6 5.9-1.7 0-3-.6-4.2-1.3l-.3.9h-1.1zM206.1 48c0 .9-.8 1.4-1.7 1.4-.5-1.2-1.2-1.9-2.8-1.9-2.2 0-3.9 1.8-3.9 4.9 0 2.6 1.7 4.3 3.9 4.3 1.7 0 2.9-.8 3.7-1.9l.6.4c-.4 1.9-2.2 3.5-5.3 3.5-2.9 0-5.4-2-5.4-5.7 0-4.6 3.7-7.3 7.1-7.3 1.9 0 3.8.7 3.8 2.3zM207.1 58.3v-1.1l1.2-.3v-15l-1.5-.4v-1c1.4-.2 2.1-.7 2.8-1.7l1 .2v9c1.4-1.3 3-2.3 4.8-2.3 1.8 0 3.2 1.2 3.2 2.9v8.3l1.5.3v1.1h-4.9v-1.1l1.2-.3v-7.2c0-1.2-.6-1.9-1.7-1.9-.9 0-2.4.4-3.9 1.7v7.4l1.5.3v1.1h-5.2zM233.4 52.1c0 4-3 6.7-6.4 6.7-3.4 0-6.1-2.5-6.1-6.4 0-4 3-6.7 6.4-6.7 3.4 0 6.1 2.4 6.1 6.4zm-2.4.5c0-3.4-1.8-5.4-3.9-5.4-2 0-3.7 1.4-3.7 4.6 0 3.4 1.8 5.4 3.9 5.4 2 0 3.7-1.4 3.7-4.6zM247.4 52.1c0 4-3 6.7-6.4 6.7-3.4 0-6.1-2.5-6.1-6.4 0-4 3-6.7 6.4-6.7 3.3 0 6.1 2.4 6.1 6.4zm-2.5.5c0-3.4-1.8-5.4-3.9-5.4-2 0-3.7 1.4-3.7 4.6 0 3.4 1.8 5.4 3.9 5.4 2.1 0 3.7-1.4 3.7-4.6zM248.5 58.3v-1.1l1.3-.3v-15l-1.5-.4v-1c1.4-.2 2.1-.7 2.8-1.7l1 .2v17.9l1.3.3v1.1h-4.9zM272.1 52.1c0 4-3 6.7-6.4 6.7-3.4 0-6.1-2.5-6.1-6.4 0-4 3-6.7 6.4-6.7 3.4 0 6.1 2.4 6.1 6.4zm-2.4.5c0-3.4-1.8-5.4-3.9-5.4-2 0-3.7 1.4-3.7 4.6 0 3.4 1.8 5.4 3.9 5.4 2 0 3.7-1.4 3.7-4.6zM282.4 40.5c0 1-.8 1.5-1.6 1.5-.1-.7-.6-1.5-1.6-1.5-.9 0-2.1.7-2.1 3v2.8h3.2v1.5h-3.2v9.3l1.9.3v1.1h-5.5v-1.1l1.3-.3v-9.3h-1.9v-1.1l1.9-.3v-1.5c0-3.7 2.3-5.9 5.1-5.9 1.2-.3 2.5.3 2.5 1.5zM63.3 79.7v6l1.8.3v1.3h-6V86l1.5-.3v-16l-1.5-.3v-1.3h7.5c3.7 0 6.6 2.2 6.6 5.7 0 4-2.9 6.1-6.8 6.1-1.2.1-2.7-.1-3.1-.2zm0-9.9v8.1c.4.1 1.4.5 2.5.5 2.7 0 4.6-1 4.6-3.9 0-3-1.7-4.7-5-4.7h-2.1zM75.9 76.6l-1.5-.3v-1.1h3.8v8.6c0 1.2.6 1.9 1.7 1.9.9 0 2.4-.4 3.9-1.7v-7.4l-1.5-.3v-1.1h3.8v10.1h1.5v1.1c-1 .2-2 .6-2.8 1.3l-1-.2.1-2.1c-1.5 1.4-3.1 2.4-4.9 2.4-1.8 0-3.2-1.2-3.2-2.9v-8.3zM91.6 76.6c1-1.1 2.5-1.9 4.2-1.9 2.9 0 5.3 2.1 5.3 5.8 0 5.1-3.7 7.3-6.6 7.3-1.7 0-2.9-.5-3.8-1.2l-.5.8-1-.2V70.9l-1.5-.4v-1c1.4-.2 2.1-.7 2.8-1.7l1 .2v8.6zm0 1.6v7.1c.5.3 1.5.7 2.6.7 2.1 0 4.4-1.4 4.4-5 0-2.6-1.5-4.3-3.7-4.3-1.3 0-2.5.7-3.3 1.5zM102.2 87.3v-1.1l1.3-.3v-15l-1.5-.4v-1c1.4-.2 2.1-.7 2.8-1.7l1 .2v17.9l1.3.3v1.1h-4.9zM108.5 87.3v-1.1l1.3-.3v-8.3l-1.5-.4v-1c1.4-.2 2.1-.7 2.8-1.7l1 .2v11.2l1.3.3v1.1h-4.9zm2.6-17.7c.8 0 1.5.6 1.5 1.5s-.6 1.5-1.5 1.5c-.8 0-1.5-.6-1.5-1.5s.7-1.5 1.5-1.5zM125.2 77c0 .9-.8 1.4-1.7 1.4-.5-1.2-1.2-1.9-2.8-1.9-2.2 0-3.9 1.8-3.9 4.9 0 2.6 1.7 4.3 3.9 4.3 1.7 0 2.9-.8 3.7-1.9l.6.4c-.4 1.9-2.2 3.5-5.3 3.5-2.9 0-5.4-2-5.4-5.7 0-4.6 3.7-7.3 7.1-7.3 1.9 0 3.8.7 3.8 2.3zM131.4 77.9c0-6.1 4.6-10.2 9.8-10.2 3.2 0 5.3 1.3 6.2 2.1l.3-.8h1l1.2 4.6-1.2.5c-.9-1.7-3.1-4.3-7.1-4.3-3.7 0-7.4 2.1-7.4 7.5 0 5.2 3.5 8.5 7.6 8.5 3.5 0 6.2-2.6 7.2-4.8l1.3.5-.8 3.9c-.3 0-.6 0-1 .2-1.2.4-3.2 2.2-7.1 2.2-5.8-.1-10-3.9-10-9.9zM164.5 81.1c0 4-3 6.7-6.4 6.7-3.4 0-6.1-2.5-6.1-6.4 0-4 3-6.7 6.4-6.7 3.4 0 6.1 2.4 6.1 6.4zm-2.5.5c0-3.4-1.8-5.4-3.9-5.4-2 0-3.7 1.4-3.7 4.6 0 3.4 1.8 5.4 3.9 5.4 2.1 0 3.7-1.4 3.7-4.6zM165.8 87.3v-1.1l1.2-.3v-8.3l-1.5-.4v-1c1.4-.2 2.1-.7 2.8-1.7l1 .2-.1 2.1c1.3-1.2 2.7-2.1 4.3-2.1 1.5 0 2.8.9 3.1 2.1 1.3-1.2 2.6-2.1 4.3-2.1 1.8 0 3.2 1.2 3.2 2.9v8.3l1.5.3v1.1h-4.9v-1.1l1.2-.3v-7.2c0-1.2-.6-1.9-1.7-1.9-.8 0-2.1.3-3.3 1.4v7.7l1.5.3v1.1h-4.9v-1.1l1.2-.3v-7.2c0-1.2-.6-1.9-1.7-1.9-.8 0-2.1.3-3.3 1.4v7.7l1.5.3v1.1h-5.4zM187 87.3v-1.1l1.2-.3v-8.3l-1.5-.4v-1c1.4-.2 2.1-.7 2.8-1.7l1 .2-.1 2.1c1.3-1.2 2.7-2.1 4.3-2.1 1.5 0 2.8.9 3.1 2.1 1.3-1.2 2.6-2.1 4.3-2.1 1.8 0 3.2 1.2 3.2 2.9v8.3l1.5.3v1.1h-4.9v-1.1l1.2-.3v-7.2c0-1.2-.6-1.9-1.7-1.9-.8 0-2.1.3-3.3 1.4v7.7l1.5.3v1.1h-4.9v-1.1l1.2-.3v-7.2c0-1.2-.6-1.9-1.7-1.9-.8 0-2.1.3-3.3 1.4v7.7l1.5.3v1.1H187zM208.7 76.6l-1.5-.3v-1.1h3.8v8.6c0 1.2.6 1.9 1.7 1.9.9 0 2.4-.4 3.9-1.7v-7.4l-1.5-.3v-1.1h3.8v10.1h1.5v1.1c-1 .2-2 .6-2.8 1.3l-1-.2.1-2.1c-1.5 1.4-3.1 2.4-4.9 2.4-1.8 0-3.2-1.2-3.2-2.9v-8.3zM221.8 87.3v-1.1l1.2-.3v-8.3l-1.5-.4v-1c1.4-.2 2.1-.7 2.8-1.7l1 .2-.1 2.4c1.5-1.4 3.1-2.4 4.9-2.4 1.8 0 3.2 1.2 3.2 2.9v8.3l1.5.3v1.1h-4.9v-1.1l1.2-.3v-7.2c0-1.2-.6-1.9-1.7-1.9-.9 0-2.4.4-3.9 1.7v7.4l1.5.3v1.1h-5.2zM236.1 87.3v-1.1l1.3-.3v-8.3l-1.5-.4v-1c1.4-.2 2.1-.7 2.8-1.7l1 .2v11.2l1.3.3v1.1h-4.9zm2.6-17.7c.8 0 1.5.6 1.5 1.5s-.6 1.5-1.5 1.5c-.8 0-1.5-.6-1.5-1.5s.7-1.5 1.5-1.5zM252.8 77c0 .9-.8 1.4-1.7 1.4-.5-1.2-1.2-1.9-2.8-1.9-2.2 0-3.9 1.8-3.9 4.9 0 2.6 1.7 4.3 3.9 4.3 1.7 0 2.9-.8 3.7-1.9l.6.4c-.4 1.9-2.2 3.5-5.3 3.5-2.9 0-5.4-2-5.4-5.7 0-4.6 3.7-7.3 7.1-7.3 1.9 0 3.8.7 3.8 2.3zM264.8 85.8l.3.6c-.1.2-.9 1.3-2.2 1.3-1.3 0-1.9-.8-1.9-1.5-.7 1-2 1.6-3.5 1.6-2.4 0-3.5-1.6-3.5-2.9 0-2 1.3-3.2 3.5-3.6l3.5-.6V78c0-1-.7-1.8-1.9-1.8-1.1 0-1.7.5-2.1 1 .4 1.8-1.2 2.7-2.7 1.9.1-2.6 2.6-4.4 5.1-4.4 2.8 0 3.9 1.7 3.9 3.8v6.8c0 .5.3.8.7.8.4 0 .7-.2.8-.3zm-3.8-1.7V82l-2.8.6c-.8.1-1.9.6-1.9 1.9 0 .9.7 1.7 2 1.7 1.2 0 2.3-.9 2.7-2.1zM266.8 85.2v-8.6h-1.9v-1.1c1.6-.3 2.6-1.7 3.2-3.3l1 .2v2.8h3.2v1.5h-3.2v8.1c0 .9.4 1.4 1.2 1.4.6 0 1.1-.3 1.4-.7l.6.5c-.3.9-1.4 1.9-2.8 1.9-1.5-.2-2.7-1.1-2.7-2.7zM273.7 87.3v-1.1l1.3-.3v-8.3l-1.5-.4v-1c1.4-.2 2.1-.7 2.8-1.7l1 .2v11.2l1.3.3v1.1h-4.9zm2.6-17.7c.8 0 1.5.6 1.5 1.5s-.6 1.5-1.5 1.5c-.8 0-1.5-.6-1.5-1.5s.6-1.5 1.5-1.5zM292.1 81.1c0 4-3 6.7-6.4 6.7-3.4 0-6.1-2.5-6.1-6.4 0-4 3-6.7 6.4-6.7 3.3 0 6.1 2.4 6.1 6.4zm-2.5.5c0-3.4-1.8-5.4-3.9-5.4-2 0-3.7 1.4-3.7 4.6 0 3.4 1.8 5.4 3.9 5.4 2.1 0 3.7-1.4 3.7-4.6zM293.4 87.3v-1.1l1.2-.3v-8.3l-1.5-.4v-1c1.4-.2 2.1-.7 2.8-1.7l1 .2-.1 2.4c1.5-1.4 3.1-2.4 4.9-2.4 1.8 0 3.2 1.2 3.2 2.9v8.3l1.5.3v1.1h-4.9v-1.1l1.2-.3v-7.2c0-1.2-.6-1.9-1.7-1.9-.9 0-2.4.4-3.9 1.7v7.4l1.5.3v1.1h-5.2zM308.6 87.3h-.7l-.6-3.5.9-.2c.7 1.5 2.1 2.8 3.9 2.8 1.6 0 2.2-1.1 2.2-1.9 0-2.7-6.6-2.2-6.6-6.3 0-1.9 1.7-3.5 3.8-3.5 1.2 0 2.2.4 2.7.8l.1-.4h.9l.6 3.1-.9.2c-.4-.8-1.3-2.3-3.2-2.3-1.3 0-1.8.8-1.8 1.5 0 2.5 6.5 1.9 6.5 6.1 0 2.4-2.1 4-4.4 4-1.2 0-2.7-.7-3.2-1.3l-.2.9z"></path></g><g><path id="XMLID_2_" class="st0" d="M28.9 19.1h14.9V8.2c-.2-.2-8.3-8-8.6-8.2h-27C8.1.2.2 8 0 8.2v20c.2.2 7.7 7.8 8 8.1h20.9v11.6H15.1v-6.6L0 41.2v10.9c.2.2 8.1 8 8.3 8.2h27c.2-.2 8.3-8 8.6-8.2v-20c-.2-.2-7.7-7.8-8-8.1H15.1V12.5h13.8v6.6z"></path></g></svg>
